<svg width="117" height="26" viewBox="0 0 117 26" fill="none" xmlns="http://www.w3.org/2000/svg">
  <path d="M108.977 4.63046V8.6408H111.941V21.3693H115.951V4.63046H108.977Z" fill="#212121"/>
  <path d="M11.5358 17.0468C10.7721 17.6699 9.84887 17.9814 8.76608 17.9814C8.14034 17.9917 7.51952 17.8694 6.94445 17.6225C6.36939 17.3756 5.85313 17.0098 5.42965 16.549C4.51889 15.5941 4.06322 14.411 4.06264 12.9999C4.06206 11.5887 4.51773 10.4097 5.42965 9.46292C5.85506 9.00549 6.37198 8.64271 6.94681 8.39818C7.52164 8.15365 8.14149 8.03284 8.76608 8.04361C9.86572 8.04361 10.7971 8.34642 11.5602 8.95204C12.1025 9.38184 12.507 9.96421 12.7886 10.6835H17.0605C16.6682 8.74048 15.7048 7.18778 14.1704 6.02536C12.636 4.86295 10.8343 4.28174 8.7652 4.28174C6.31948 4.28174 4.24718 5.12449 2.54831 6.80999C0.849434 8.4955 0 10.5588 0 12.9999C0 15.4578 0.849434 17.5251 2.54831 19.2019C4.24718 20.8787 6.31977 21.7174 8.76608 21.718C10.9165 21.718 12.7473 21.1283 14.2585 19.9491C15.7696 18.7698 16.7126 17.1508 17.0875 15.0922H12.8618C12.5611 15.9161 12.1182 16.5743 11.5358 17.0468Z" fill="#212121"/>
  <path d="M22.8415 4.63046H18.8311V21.3693H30.1708L31.734 17.7076H22.8415V4.63046Z" fill="#212121"/>
  <path d="M75.7021 11.455L72.295 10.6835C71.4128 10.4835 70.9716 10.0186 70.9716 9.28856C70.9716 8.80819 71.1748 8.40454 71.5819 8.0811C71.989 7.75765 72.5235 7.59463 73.1782 7.59463C73.8417 7.58751 74.4885 7.80231 75.016 8.20489C75.5553 8.61174 75.8988 9.18859 76.0465 9.93544L80.0176 9.11419C79.7072 7.60305 78.947 6.41971 77.7369 5.56417C76.5268 4.70864 75.0232 4.28116 73.2261 4.28174C71.2814 4.28174 69.7122 4.75484 68.5183 5.70105C67.3245 6.64726 66.7282 7.92591 66.7294 9.53702C66.7294 12.0775 68.2001 13.6883 71.1416 14.3695L74.574 15.1166C75.1459 15.2329 75.5423 15.4072 75.7631 15.6397C75.984 15.8722 76.0941 16.1878 76.0935 16.5865C76.0979 16.8319 76.0407 17.0744 75.9273 17.292C75.8138 17.5096 75.6477 17.6954 75.444 17.8323C75.0116 18.1479 74.4194 18.3054 73.6673 18.3048C71.9021 18.3048 70.8234 17.483 70.4311 15.8394L66.2638 16.6615C66.4766 18.2563 67.2487 19.4978 68.5803 20.3859C69.9118 21.2739 71.5342 21.718 73.4476 21.718C75.376 21.718 76.9857 21.2446 78.2765 20.2978C79.5674 19.351 80.2128 18.0227 80.2128 16.3127C80.2128 13.7554 78.7093 12.1362 75.7021 11.455Z" fill="#212121"/>
  <path d="M81.9504 4.63046V8.6408H84.9145V21.3693H88.9249V4.63046H81.9504Z" fill="#212121"/>
  <path d="M60.0095 11.455L56.6024 10.6835C55.7201 10.4835 55.279 10.0186 55.279 9.28856C55.279 8.80819 55.4821 8.40454 55.8893 8.0811C56.2964 7.75765 56.8308 7.59463 57.4856 7.59463C58.1491 7.58751 58.7959 7.80231 59.3233 8.20489C59.8627 8.61174 60.2062 9.18859 60.3538 9.93544L64.3249 9.11419C64.0146 7.60305 63.2543 6.41971 62.0443 5.56417C60.8342 4.70864 59.3306 4.28116 57.5335 4.28174C55.5888 4.28174 54.0195 4.75484 52.8257 5.70105C51.6319 6.64726 51.0356 7.92591 51.0368 9.53702C51.0368 12.0775 52.5075 13.6883 55.449 14.3695L58.8813 15.1166C59.4532 15.2329 59.8496 15.4072 60.0705 15.6397C60.2914 15.8722 60.4015 16.1878 60.4009 16.5865C60.4053 16.8319 60.3481 17.0744 60.2346 17.292C60.1212 17.5096 59.9551 17.6954 59.7514 17.8323C59.319 18.1479 58.7267 18.3054 57.9747 18.3048C56.2095 18.3048 55.1308 17.483 54.7385 15.8394L50.5712 16.6615C50.7839 18.2563 51.5561 19.4978 52.8876 20.3859C54.2192 21.2739 55.8416 21.718 57.755 21.718C59.6834 21.718 61.2931 21.2446 62.5839 20.2978C63.8748 19.351 64.5202 18.0227 64.5202 16.3127C64.5202 13.7554 63.0166 12.1362 60.0095 11.455Z" fill="#212121"/>
  <path d="M45.968 21.3693H50.4143L43.2654 4.63046H39.2551L32.1062 21.3693H36.576L37.7181 18.4051H44.8277L45.968 21.3693ZM41.2716 9.27722L43.4163 14.774H39.1444L41.2716 9.27722Z" fill="#212121"/>
  <path d="M99.3866 4.28174C97.6623 4.28174 95.9768 4.79305 94.5431 5.75101C93.1094 6.70897 91.992 8.07055 91.3321 9.66358C90.6723 11.2566 90.4996 13.0095 90.836 14.7007C91.1724 16.3918 92.0027 17.9453 93.222 19.1645C94.4412 20.3838 95.9946 21.2141 97.6858 21.5505C99.3769 21.8869 101.13 21.7142 102.723 21.0544C104.316 20.3945 105.677 19.2771 106.635 17.8434C107.593 16.4097 108.105 14.7241 108.105 12.9999C108.105 10.6877 107.186 8.47018 105.551 6.83522C103.916 5.20025 101.699 4.28174 99.3866 4.28174ZM102.799 16.549C101.885 17.4877 100.748 17.9567 99.3866 17.9561C98.0254 17.9555 96.888 17.4865 95.9743 16.549C95.0607 15.6109 94.6038 14.4363 94.6038 13.0251C94.6038 11.5965 95.0607 10.4091 95.9743 9.46292C96.888 8.51671 98.0254 8.04332 99.3866 8.04274C100.748 8.04274 101.886 8.51613 102.799 9.46292C103.712 10.4097 104.169 11.5971 104.169 13.0251C104.169 14.4369 103.713 15.6115 102.799 16.549Z" fill="#212121"/>
</svg>
